<?xml version="1.0" standalone="no"?><!DOCTYPE svg PUBLIC "-//W3C//DTD SVG 1.1//EN" "http://www.w3.org/Graphics/SVG/1.1/DTD/svg11.dtd"><svg t="1709801443861" class="icon" viewBox="0 0 1024 1024" version="1.1" xmlns="http://www.w3.org/2000/svg" p-id="973" xmlns:xlink="http://www.w3.org/1999/xlink" width="200" height="200"><path d="M155.0848 507.3408v7.0144a26.9312 26.9312 0 0 0 26.9312 26.9824h31.8464v274.8928a86.5792 86.5792 0 0 0 86.4256 86.528h480.3072a86.528 86.528 0 0 0 86.3744-86.528v-300.4928s39.2704-1.3824 58.7776-1.3824v-7.0144z" fill="#FFDE73" p-id="974"></path><path d="M880.9984 319.1808h-234.7008V206.1312a56.32 56.32 0 0 0-56.32-56.32H490.5984a56.32 56.32 0 0 0-56.064 56.32v113.0496H235.52a80.7936 80.7936 0 0 0-80.4352 80.7424v107.52h770.6624v-107.52c0-44.4928-0.3072-80.7424-44.7488-80.7424zM402.8416 655.8208a35.84 35.84 0 0 0-35.84 35.84v154.5216a35.84 35.84 0 0 0 71.68 0v-154.5216a35.84 35.84 0 0 0-35.84-35.84zM632.576 655.8208a35.84 35.84 0 0 0-35.84 35.84v154.5216a35.84 35.84 0 0 0 71.68 0v-154.5216a35.84 35.84 0 0 0-35.84-35.84z" fill="#8CECFF" p-id="975"></path><path d="M872.7552 282.1632h-244.48V139.5712A57.6512 57.6512 0 0 0 570.7264 81.92H452.6592a57.6512 57.6512 0 0 0-57.5488 57.6512v142.592H150.6304A87.04 87.04 0 0 0 63.9488 368.64v135.5776A23.04 23.04 0 0 0 87.04 527.36h46.592v310.1184a90.9824 90.9824 0 0 0 90.88 90.7776H798.72a91.0336 91.0336 0 0 0 90.9312-90.88V527.36h46.592a22.9888 22.9888 0 0 0 23.04-23.04V368.64a86.7328 86.7328 0 0 0-86.528-86.4768z m-29.0816 555.2128a44.8512 44.8512 0 0 1-44.9536 44.8h-152.064V675.84a23.04 23.04 0 0 0-46.08 0v206.336H418.8672V675.84a23.04 23.04 0 0 0-46.08 0v206.336h-148.48a44.8512 44.8512 0 0 1-44.8-44.8V527.36h664.1664zM913.3056 481.28h-41.8304a24.2176 24.2176 0 0 0-4.7616-0.512H156.672a24.2176 24.2176 0 0 0-4.7616 0.512h-41.8816V368.64a40.6016 40.6016 0 0 1 40.6016-40.5504h267.52a23.0912 23.0912 0 0 0 23.04-23.04V139.5712A11.4688 11.4688 0 0 1 452.6592 128h118.0672a11.52 11.52 0 0 1 11.4688 11.52v165.6832a23.04 23.04 0 0 0 23.04 23.04h267.52a40.6016 40.6016 0 0 1 40.5504 40.3968z" fill="#474747" p-id="976"></path></svg>