<?xml version="1.0" standalone="no"?><!DOCTYPE svg PUBLIC "-//W3C//DTD SVG 1.1//EN" "http://www.w3.org/Graphics/SVG/1.1/DTD/svg11.dtd"><svg t="1709806066825" class="icon" viewBox="0 0 1024 1024" version="1.1" xmlns="http://www.w3.org/2000/svg" p-id="1518" xmlns:xlink="http://www.w3.org/1999/xlink" width="200" height="200"><path d="M657.92 46.545455h191.162182c35.188364 0 63.720727 28.625455 63.720727 63.953454v767.627636c0 35.374545-28.532364 64-63.767273 64h-191.115636V46.545455zM180.130909 750.126545h103.610182c32.023273-1.396364 56.925091-31.185455 55.621818-66.466909-1.210182-33.28-25.413818-59.997091-55.621818-61.346909H180.130909v-64.093091h103.610182c32.023273-1.396364 56.925091-31.185455 55.621818-66.466909-1.210182-33.28-25.413818-59.997091-55.621818-61.346909H180.130909V366.312727h103.610182c32.023273-1.396364 56.925091-31.185455 55.621818-66.466909-1.210182-33.28-25.413818-59.997091-55.621818-61.346909H180.130909v-128C180.084364 75.170909 208.616727 46.545455 243.805091 46.545455h382.277818v895.534545H243.805091a63.860364 63.860364 0 0 1-63.767273-63.953455v-128zM146.525091 270.475636h133.166545c15.080727 0.651636 27.182545 13.963636 27.787637 30.673455 0.605091 17.594182-11.776 32.535273-27.787637 33.233454H144.197818C128.139636 333.637818 115.665455 318.743273 116.363636 301.149091c0.605091-17.687273 14.103273-31.371636 30.114909-30.72z m0 383.813819h133.166545c15.080727 0.651636 27.182545 13.963636 27.787637 30.673454 0.605091 17.594182-11.776 32.535273-27.787637 33.233455H144.197818c-16.011636-0.698182-28.485818-15.639273-27.787636-33.233455 0.605091-17.687273 14.103273-31.371636 30.114909-30.72z m0-191.90691h133.166545c15.080727 0.651636 27.182545 13.963636 27.787637 30.673455 0.605091 17.594182-11.776 32.535273-27.787637 33.233455H144.197818c-16.011636-0.698182-28.485818-15.639273-27.787636-33.233455 0.605091-17.687273 14.103273-31.371636 30.114909-30.72z" fill="#2682AB" p-id="1519"></path></svg>